# xmcd
#
# Track frame offsets: 
#        150
#        34504
#        39455
#        75909
#        79773
#        109462
#        117811
#        139253
#        173305
#        184297
#        200739
#        204958
#        230562
#        236159
#        261806
#        272447
#
# Disc length: 3824 seconds
#
# Revision: 0
# Processed by: cddbd v1.5.2PL0 Copyright (c) Steve Scherf et al.
# Submitted via: ExactAudioCopy v1.0b1
#
DISCID=d20eee10
DTITLE=Włodek Pawlik - Struny na ziemi
DYEAR=2011
DGENRE=Acid
TTITLE0=Struny na ziemi
TTITLE1=Wierzby jak klawiatury
TTITLE2=Jezeli znajde
TTITLE3=Zaladowalem tam wszystko
TTITLE4=Wierzby stuli sie jak gniazda
TTITLE5=Ptaszki swietego Franciszka
TTITLE6=Upokarza mnie milosc
TTITLE7=Biografia
TTITLE8=Juz tylko kilka drzew zostalo
TTITLE9=Rzeczy
TTITLE10=Karty
TTITLE11=Stronami deszcze, stronami pogoda
TTITLE12=Co mogł czuć slon
TTITLE13=W starosci, samotnisci
TTITLE14=Pozegnaj, pozegnaj
TTITLE15=Fandago
EXTD=
EXTT0=
EXTT1=
EXTT2=
EXTT3=
EXTT4=
EXTT5=
EXTT6=
EXTT7=
EXTT8=
EXTT9=
EXTT10=
EXTT11=
EXTT12=
EXTT13=
EXTT14=
EXTT15=
PLAYORDER=
